<?xml version="1.0"?>
<svg version="1.1" xmlns="http://www.w3.org/2000/svg" xmlns:xlink="http://www.w3.org/1999/xlink" width="87.679" height="87.679">
    <desc iVinci="yes" version="4.6" gridStep="20" showGrid="no" snapToGrid="no" codePlatform="0"/>
    <g id="Layer1" name="Layer 1" opacity="1">
        <g id="Shape1">
            <desc shapeID="1" type="0" basicInfo-basicType="0" basicInfo-roundedRectRadius="12" basicInfo-polygonSides="6" basicInfo-starPoints="5" bounding="rect(-4.895,-4.89475,9.79,9.7895)" text="" font-familyName="" font-pixelSize="20" font-bold="0" font-underline="0" font-alignment="1" strokeStyle="0" markerStart="0" markerEnd="0" shadowEnabled="0" shadowOffsetX="0" shadowOffsetY="2" shadowBlur="4" shadowOpacity="160" blurEnabled="0" blurRadius="4" transform="matrix(1,0,0,1,52.5745,11.2542)" pers-center="0,0" pers-size="0,0" pers-start="0,0" pers-end="0,0" locked="0" mesh="" flag=""/>
            <path id="shapePath1" d="M49.179,16.149 C49.563,16.149 49.947,16.003 50.24,15.71 L57.03,8.92 C57.616,8.335 57.616,7.384 57.03,6.799 C56.444,6.213 55.495,6.213 54.909,6.799 L48.119,13.589 C47.533,14.174 47.533,15.125 48.119,15.71 C48.411,16.003 48.795,16.149 49.179,16.149 Z" style="stroke:none;fill-rule:evenodd;fill:#ff1016;fill-opacity:1;"/>
        </g>
        <g id="Shape2">
            <desc shapeID="2" type="0" basicInfo-basicType="0" basicInfo-roundedRectRadius="12" basicInfo-polygonSides="6" basicInfo-starPoints="5" bounding="rect(-5.33043,-5.32975,10.6609,10.6595)" text="" font-familyName="" font-pixelSize="20" font-bold="0" font-underline="0" font-alignment="1" strokeStyle="0" markerStart="0" markerEnd="0" shadowEnabled="0" shadowOffsetX="0" shadowOffsetY="2" shadowBlur="4" shadowOpacity="160" blurEnabled="0" blurRadius="4" transform="matrix(1,0,0,1,60.6291,18.4392)" pers-center="0,0" pers-size="0,0" pers-start="0,0" pers-end="0,0" locked="0" mesh="" flag=""/>
            <path id="shapePath2" d="M55.738,23.33 C56.031,23.623 56.415,23.769 56.799,23.769 C57.183,23.769 57.567,23.623 57.86,23.33 L65.52,15.67 C66.106,15.085 66.106,14.135 65.52,13.549 C64.934,12.963 63.985,12.963 63.399,13.549 L55.739,21.209 C55.152,21.794 55.152,22.744 55.738,23.33 Z" style="stroke:none;fill-rule:evenodd;fill:#ff1016;fill-opacity:1;"/>
        </g>
        <g id="Shape3">
            <desc shapeID="3" type="0" basicInfo-basicType="0" basicInfo-roundedRectRadius="12" basicInfo-polygonSides="6" basicInfo-starPoints="5" bounding="rect(-3.155,-3.15475,6.31,6.3095)" text="" font-familyName="" font-pixelSize="20" font-bold="0" font-underline="0" font-alignment="1" strokeStyle="0" markerStart="0" markerEnd="0" shadowEnabled="0" shadowOffsetX="0" shadowOffsetY="2" shadowBlur="4" shadowOpacity="160" blurEnabled="0" blurRadius="4" transform="matrix(1,0,0,1,69.8045,9.26425)" pers-center="0,0" pers-size="0,0" pers-start="0,0" pers-end="0,0" locked="0" mesh="" flag=""/>
            <path id="shapePath3" d="M68.149,12.419 C68.533,12.419 68.917,12.273 69.21,11.98 L72.52,8.67 C73.106,8.085 73.106,7.134 72.52,6.549 C71.934,5.963 70.985,5.963 70.399,6.549 L67.089,9.859 C66.503,10.444 66.503,11.395 67.089,11.98 C67.382,12.272 67.766,12.419 68.149,12.419 Z" style="stroke:none;fill-rule:evenodd;fill:#ff1016;fill-opacity:1;"/>
        </g>
        <g id="Shape4">
            <desc shapeID="4" type="0" basicInfo-basicType="0" basicInfo-roundedRectRadius="12" basicInfo-polygonSides="6" basicInfo-starPoints="5" bounding="rect(-12.3801,-12.3798,24.7601,24.7595)" text="" font-familyName="" font-pixelSize="20" font-bold="0" font-underline="0" font-alignment="1" strokeStyle="0" markerStart="0" markerEnd="0" shadowEnabled="0" shadowOffsetX="0" shadowOffsetY="2" shadowBlur="4" shadowOpacity="160" blurEnabled="0" blurRadius="4" transform="matrix(1,0,0,1,75.2986,19.0093)" pers-center="0,0" pers-size="0,0" pers-start="0,0" pers-end="0,0" locked="0" mesh="" flag=""/>
            <path id="shapePath4" d="M87.239,7.069 C86.653,6.483 85.704,6.483 85.118,7.069 L63.358,28.829 C62.772,29.414 62.772,30.365 63.358,30.95 C63.651,31.243 64.035,31.389 64.419,31.389 C64.803,31.389 65.187,31.243 65.48,30.95 L87.24,9.19 C87.825,8.604 87.825,7.654 87.239,7.069 Z" style="stroke:none;fill-rule:evenodd;fill:#ff1016;fill-opacity:1;"/>
        </g>
        <g id="Shape5">
            <desc shapeID="5" type="0" basicInfo-basicType="0" basicInfo-roundedRectRadius="12" basicInfo-polygonSides="6" basicInfo-starPoints="5" bounding="rect(-31.2767,-31.1762,62.5533,62.3524)" text="" font-familyName="" font-pixelSize="20" font-bold="0" font-underline="0" font-alignment="1" strokeStyle="0" markerStart="0" markerEnd="0" shadowEnabled="0" shadowOffsetX="0" shadowOffsetY="2" shadowBlur="4" shadowOpacity="160" blurEnabled="0" blurRadius="4" transform="matrix(1,0,0,1,31.2778,50.3918)" pers-center="0,0" pers-size="0,0" pers-start="0,0" pers-end="0,0" locked="0" mesh="" flag=""/>
            <path id="shapePath5" d="M62.434,47.433 C62.101,43.807 61.154,40.316 59.619,37.058 C59.618,37.056 59.618,37.055 59.617,37.053 C58.099,33.813 56.032,30.871 53.48,28.32 C52.962,27.79 52.461,27.325 51.985,26.927 C50.528,25.635 48.931,24.469 47.236,23.461 C47.234,23.46 47.233,23.459 47.232,23.458 C46.275,22.893 45.35,22.408 44.406,21.977 C41.665,20.716 38.754,19.867 35.751,19.453 C35.061,19.359 34.371,19.286 33.668,19.233 C33.082,19.191 32.461,19.32 31.941,19.314 C29.959,19.272 27.964,18.909 26.017,19.909 C26.012,19.909 26.008,19.909 26.003,19.909 C22.043,19.909 18.312,21.635 14.923,23.754 C13.285,24.762 11.715,25.909 10.258,26.909 C10.258,26.909 10.257,26.909 10.257,26.909 C10.256,26.909 10.255,27.143 10.254,27.144 C10.251,27.147 10.247,27.266 10.243,27.27 C10.242,27.271 10.242,27.33 10.241,27.33 C9.926,27.613 9.612,27.935 9.309,28.239 C9.168,28.38 9.019,28.547 8.886,28.709 C6.534,31.143 4.463,33.909 3.041,36.912 C1.643,39.823 1.12,42.928 0.120001,46.126 C0.120001,46.126 0.120001,46.127 0.120001,46.128 C0.120001,47.883 -0.0489998,49.69 0.0160007,51.535 L0.155001,52.601 C0.368999,55.71 1.074,58.714 2.169,61.534 C2.17,61.536 2.189,61.538 2.19,61.541 C2.192,61.547 2.205,61.553 2.207,61.559 C2.209,61.564 2.215,61.57 2.217,61.575 C2.218,61.576 2.221,61.578 2.222,61.579 C2.469,62.255 2.764,62.95 3.123,63.702 C4.366,66.326 5.972,68.762 7.926,70.979 C7.993,71.058 8.061,71.134 8.134,71.207 C8.475,71.613 8.857,72.028 9.268,72.439 C11.221,74.392 13.422,76.078 15.842,77.467 C15.953,77.531 16.064,77.592 16.175,77.65 C16.179,77.652 16.183,77.656 16.187,77.658 C20.095,79.843 24.548,81.166 29.055,81.484 C29.788,81.54 30.532,81.568 31.277,81.568 C31.65,81.568 32.024,81.56 32.396,81.547 C32.4,81.547 32.404,81.546 32.408,81.545 C35.897,81.437 39.304,80.756 42.535,79.519 C43.031,79.33 43.525,79.128 44.021,78.908 C44.069,78.886 44.116,78.862 44.161,78.836 C47.187,77.486 49.97,75.654 52.434,73.389 C52.474,73.356 52.514,73.316 52.553,73.279 C52.827,73.05 53.098,72.79 53.329,72.549 L53.244,72.461 C57.105,68.61 60.118,63.815 61.118,58.594 C61.118,58.593 61.118,58.593 61.118,58.592 C61.118,58.591 61.118,58.908 61.118,58.908 C61.118,58.908 61.292,58.908 61.292,58.908 L61.379,58.908 C61.669,57.908 61.942,56.622 62.105,55.594 C62.108,55.576 62.132,55.479 62.134,55.461 C62.531,53.086 62.652,50.597 62.475,48.179 C62.466,47.948 62.455,47.666 62.434,47.433 M51.349,30.43 C53.474,32.555 55.202,34.98 56.534,37.623 L50.67,47.051 L42.337,47.863 L34.472,39.4 L35.527,31.883 L47.113,27.168 C47.171,27.145 47.215,27.103 47.269,27.074 C48.222,27.73 49.152,28.424 50.027,29.2 C50.461,29.563 50.89,29.961 51.349,30.43 M15.647,62.442 L4.769,59.767 C3.932,57.427 3.402,54.957 3.227,52.413 L3.168,51.397 C3.121,50.042 3.19,48.697 3.328,47.374 L13.193,43.356 L19.608,46.426 L20.966,57.709 L15.647,62.442 M16.504,26.381 C19.334,24.612 22.423,23.388 25.692,22.72 L32.632,30.935 L31.518,38.871 L20.978,43.755 L14.512,40.661 L13.626,28.589 C13.623,28.543 13.602,28.503 13.595,28.458 C14.527,27.699 15.498,27 16.504,26.381 M18.354,75.408 L17.569,64.749 L22.901,60.006 L34.367,62.271 L36.814,68.7 L30.696,78.561 C30.221,78.551 29.746,78.53 29.275,78.494 C25.406,78.22 21.738,77.176 18.354,75.408 M51.641,69.974 L39.358,66.954 L37.1,61.02 L42.782,50.835 L51.149,50.02 L58.347,58.545 C57.07,62.815 54.769,66.741 51.641,69.974 Z" style="stroke:none;fill-rule:evenodd;fill:#ff1016;fill-opacity:1;"/>
        </g>
    </g>
</svg>
