<?xml version="1.0"?>
<svg version="1.1" xmlns="http://www.w3.org/2000/svg" xmlns:xlink="http://www.w3.org/1999/xlink" width="578.106" height="578.106">
    <desc iVinci="yes" version="4.6" gridStep="20" showGrid="no" snapToGrid="no" codePlatform="0"/>
    <g id="Layer1" name="Layer 1" opacity="1">
        <g id="Shape1">
            <desc shapeID="1" type="0" basicInfo-basicType="0" basicInfo-roundedRectRadius="12" basicInfo-polygonSides="6" basicInfo-starPoints="5" bounding="rect(-289.053,-288.865,578.106,577.729)" text="" font-familyName="" font-pixelSize="20" font-bold="0" font-underline="0" font-alignment="1" strokeStyle="0" markerStart="0" markerEnd="0" shadowEnabled="0" shadowOffsetX="0" shadowOffsetY="2" shadowBlur="4" shadowOpacity="160" blurEnabled="0" blurRadius="4" transform="matrix(1,0,0,1,289.053,289)" pers-center="0,0" pers-size="0,0" pers-start="0,0" pers-end="0,0" locked="0" mesh="" flag=""/>
            <path id="shapePath1" d="M577.83,456.075 C579.055,465.46 576.195,473.62 569.262,480.555 L487.866,561.336 C484.194,565.416 479.401,568.887 473.485,571.74 C467.569,574.597 461.756,576.433 456.046,577.248 C455.638,577.248 454.411,577.353 452.37,577.557 C450.333,577.76 447.681,577.864 444.417,577.864 C436.663,577.864 424.116,576.538 406.776,573.885 C389.436,571.232 368.221,564.703 343.131,554.301 C318.035,543.897 289.578,528.289 257.755,507.483 C225.932,486.678 192.067,458.116 156.163,421.803 C127.603,393.651 103.939,366.723 85.171,341.02 C66.403,315.315 51.307,291.549 39.883,269.721 C28.458,247.893 19.89,228.105 14.178,210.357 C8.466,192.609 4.59,177.309 2.54999,164.457 C0.51001,151.605 -0.306,141.507 0.10199,134.163 C0.51001,126.819 0.713989,122.739 0.713989,121.923 C1.53,116.211 3.366,110.397 6.22198,104.481 C9.078,98.565 12.546,93.771 16.626,90.099 L98.022,8.70303 C103.734,2.99103 110.262,0.13501 117.606,0.13501 C122.91,0.13501 127.602,1.66501 131.682,4.72504 C135.762,7.78503 139.23,11.559 142.086,16.047 L207.57,140.283 C211.242,146.811 212.262,153.951 210.63,161.703 C208.998,169.455 205.53,175.983 200.226,181.287 L170.238,211.275 C169.422,212.091 168.708,213.417 168.096,215.253 C167.484,217.089 167.178,218.619 167.178,219.843 C168.81,228.411 172.482,238.203 178.194,249.219 C183.09,259.011 190.638,270.945 200.838,285.021 C211.038,299.097 225.522,315.314 244.29,333.674 C262.65,352.444 278.97,367.028 293.25,377.434 C307.527,387.834 319.465,395.487 329.053,400.383 C338.641,405.279 345.985,408.237 351.084,409.254 L358.732,410.785 C359.548,410.785 360.877,410.478 362.711,409.867 C364.547,409.254 365.873,408.541 366.69,407.724 L401.573,372.228 C408.921,365.701 417.485,362.437 427.278,362.437 C434.216,362.437 439.721,363.66 443.801,366.109 L444.412,366.109 L562.527,435.877 C571.098,441.185 576.197,447.915 577.83,456.075 Z" style="stroke:none;fill-rule:evenodd;fill:#ffffff;fill-opacity:1;"/>
        </g>
    </g>
</svg>
