<?xml version="1.0"?>
<svg version="1.1" xmlns="http://www.w3.org/2000/svg" xmlns:xlink="http://www.w3.org/1999/xlink" width="512" height="512">
    <desc iVinci="yes" version="4.6" gridStep="20" showGrid="no" snapToGrid="no" codePlatform="0"/>
    <g id="Layer1" name="Layer 1" opacity="1">
        <g id="Shape1">
            <desc shapeID="1" type="0" basicInfo-basicType="0" basicInfo-roundedRectRadius="12" basicInfo-polygonSides="6" basicInfo-starPoints="5" bounding="rect(-248.1,-248.1,496.2,496.2)" text="" font-familyName="" font-pixelSize="20" font-bold="0" font-underline="0" font-alignment="1" strokeStyle="0" markerStart="0" markerEnd="0" shadowEnabled="0" shadowOffsetX="0" shadowOffsetY="2" shadowBlur="4" shadowOpacity="160" blurEnabled="0" blurRadius="4" transform="matrix(1.03184,0,0,1.03184,256,256)" pers-center="0,0" pers-size="0,0" pers-start="0,0" pers-end="0,0" locked="0" mesh="" flag=""/>
            <path id="shapePath1" d="M3.05176e-05,256 C3.05176e-05,114.638 114.638,3.05176e-05 256,3.05176e-05 C397.362,3.05176e-05 512,114.638 512,256 C512,397.362 397.362,512 256,512 C114.638,512 3.05176e-05,397.362 3.05176e-05,256 Z" style="stroke:none;fill-rule:nonzero;fill:#32bea6;fill-opacity:1;"/>
        </g>
        <g id="Shape2">
            <desc shapeID="2" type="0" basicInfo-basicType="0" basicInfo-roundedRectRadius="12" basicInfo-polygonSides="6" basicInfo-starPoints="5" bounding="rect(-25.0803,-20.696,50.1606,41.392)" text="" font-familyName="" font-pixelSize="20" font-bold="0" font-underline="0" font-alignment="1" strokeStyle="0" markerStart="0" markerEnd="0" shadowEnabled="0" shadowOffsetX="0" shadowOffsetY="2" shadowBlur="4" shadowOpacity="160" blurEnabled="0" blurRadius="4" transform="matrix(1,0,0,1,354.38,128.904)" pers-center="0,0" pers-size="0,0" pers-start="0,0" pers-end="0,0" locked="0" mesh="" flag=""/>
            <path id="shapePath2" d="M329.3,135.7 C329.3,135.7 349.5,98.8 368.7,110.5 C368.7,110.5 380.4,117.2 379.4,132.2 C379.4,132.2 359.2,115.5 353.8,149.6 L329.3,135.7 Z" style="stroke:none;fill-rule:nonzero;fill:#efe020;fill-opacity:1;"/>
        </g>
        <g id="Shape3">
            <desc shapeID="3" type="0" basicInfo-basicType="0" basicInfo-roundedRectRadius="12" basicInfo-polygonSides="6" basicInfo-starPoints="5" bounding="rect(-8.0502,-14.15,16.1004,28.3)" text="" font-familyName="" font-pixelSize="20" font-bold="0" font-underline="0" font-alignment="1" strokeStyle="0" markerStart="0" markerEnd="0" shadowEnabled="0" shadowOffsetX="0" shadowOffsetY="2" shadowBlur="4" shadowOpacity="160" blurEnabled="0" blurRadius="4" transform="matrix(1,0,0,1,371.25,142.55)" pers-center="0,0" pers-size="0,0" pers-start="0,0" pers-end="0,0" locked="0" mesh="" flag=""/>
            <path id="shapePath3" d="M369.5,156.7 C369.5,156.7 373.6,151.3 376.5,144.8 C379.4,138.3 379.3,132.1 379.3,132.1 L376.7,129.3 L371.6,128.4 C371.6,128.4 373.9,131.2 372,137.2 C370.7,141.3 363.2,152.5 363.2,152.5 L369.5,156.7 Z" style="stroke:none;fill-rule:nonzero;fill:#e8d523;fill-opacity:1;"/>
        </g>
        <g id="Shape4">
            <desc shapeID="4" type="0" basicInfo-basicType="0" basicInfo-roundedRectRadius="12" basicInfo-polygonSides="6" basicInfo-starPoints="5" bounding="rect(-18.7888,-15.6788,37.5775,31.3575)" text="" font-familyName="" font-pixelSize="20" font-bold="0" font-underline="0" font-alignment="1" strokeStyle="0" markerStart="0" markerEnd="0" shadowEnabled="0" shadowOffsetX="0" shadowOffsetY="2" shadowBlur="4" shadowOpacity="160" blurEnabled="0" blurRadius="4" transform="matrix(1,0,0,1,360.689,133.821)" pers-center="0,0" pers-size="0,0" pers-start="0,0" pers-end="0,0" locked="0" mesh="" flag=""/>
            <path id="shapePath4" d="M379.4,132.2 C379.7,128.4 379.1,125.2 378.1,122.4 C369.2,112.1 352.1,121.1 341.9,142.8 L353.8,149.5 C359.1,115.5 379.4,132.2 379.4,132.2 Z" style="stroke:none;fill-rule:nonzero;fill:#e8d523;fill-opacity:1;"/>
        </g>
        <g id="Shape5">
            <desc shapeID="5" type="0" basicInfo-basicType="0" basicInfo-roundedRectRadius="12" basicInfo-polygonSides="6" basicInfo-starPoints="5" bounding="rect(-143.45,-113.545,286.9,227.09)" text="" font-familyName="" font-pixelSize="20" font-bold="0" font-underline="0" font-alignment="1" strokeStyle="0" markerStart="0" markerEnd="0" shadowEnabled="0" shadowOffsetX="0" shadowOffsetY="2" shadowBlur="4" shadowOpacity="160" blurEnabled="0" blurRadius="4" transform="matrix(1,0,0,1,240.95,229.955)" pers-center="0,0" pers-size="0,0" pers-start="0,0" pers-end="0,0" locked="0" mesh="" flag=""/>
            <path id="shapePath5" d="M226.6,150.8 L97.5,299.1 L189.1,343.5 C189.1,343.5 357.4,194.7 384.4,160.7 L299.9,121.8 C288.1,118 267.8,102.5 226.6,150.8 Z" style="stroke:none;fill-rule:nonzero;fill:#e0ce20;fill-opacity:1;"/>
        </g>
        <g id="Shape6">
            <desc shapeID="6" type="0" basicInfo-basicType="0" basicInfo-roundedRectRadius="12" basicInfo-polygonSides="6" basicInfo-starPoints="5" bounding="rect(-108.681,-108.889,217.362,217.778)" text="" font-familyName="" font-pixelSize="20" font-bold="0" font-underline="0" font-alignment="1" strokeStyle="0" markerStart="0" markerEnd="0" shadowEnabled="0" shadowOffsetX="0" shadowOffsetY="2" shadowBlur="4" shadowOpacity="160" blurEnabled="0" blurRadius="4" transform="matrix(1,0,0,1,297.781,265.811)" pers-center="0,0" pers-size="0,0" pers-start="0,0" pers-end="0,0" locked="0" mesh="" flag=""/>
            <path id="shapePath6" d="M316.9,191.5 L189.1,343.5 L199,374.7 C199,374.7 254.4,319.3 287.1,310.8 C287.1,310.8 347.5,308.7 374.4,274.6 C374.4,274.6 436.2,217.5 388.2,163.8 C382.6,157.6 358.1,143.3 316.9,191.5 Z" style="stroke:none;fill-rule:nonzero;fill:#efe020;fill-opacity:1;"/>
        </g>
        <g id="Shape7">
            <desc shapeID="7" type="0" basicInfo-basicType="0" basicInfo-roundedRectRadius="12" basicInfo-polygonSides="6" basicInfo-starPoints="5" bounding="rect(-59.3119,-45.5263,118.624,91.0527)" text="" font-familyName="" font-pixelSize="20" font-bold="0" font-underline="0" font-alignment="1" strokeStyle="0" markerStart="0" markerEnd="0" shadowEnabled="0" shadowOffsetX="0" shadowOffsetY="2" shadowBlur="4" shadowOpacity="160" blurEnabled="0" blurRadius="4" transform="matrix(1,0,0,1,143.718,343.026)" pers-center="0,0" pers-size="0,0" pers-start="0,0" pers-end="0,0" locked="0" mesh="" flag=""/>
            <path id="shapePath7" d="M100.7,346.5 C100.7,346.5 97.9,342.1 87.4,321.5 C81.5,309.8 83.7,298.1 99.6,297.5 L189.1,343.5 L202.9,373.1 C202.9,373.1 205.6,389.6 186.4,388.5 L100.7,346.5 Z" style="stroke:none;fill-rule:nonzero;fill:#e0ce20;fill-opacity:1;"/>
        </g>
        <g id="Shape8">
            <desc shapeID="8" type="0" basicInfo-basicType="0" basicInfo-roundedRectRadius="12" basicInfo-polygonSides="6" basicInfo-starPoints="5" bounding="rect(-59.3119,-45.5263,118.624,91.0527)" text="" font-familyName="" font-pixelSize="20" font-bold="0" font-underline="0" font-alignment="1" strokeStyle="0" markerStart="0" markerEnd="0" shadowEnabled="0" shadowOffsetX="0" shadowOffsetY="2" shadowBlur="4" shadowOpacity="160" blurEnabled="0" blurRadius="4" transform="matrix(1,0,0,1,143.718,343.026)" pers-center="0,0" pers-size="0,0" pers-start="0,0" pers-end="0,0" locked="0" mesh="" flag=""/>
            <path id="shapePath8" d="M100.7,346.5 C100.7,346.5 97.9,342.1 87.4,321.5 C81.5,309.8 83.7,298.1 99.6,297.5 L189.1,343.5 L202.9,373.1 C202.9,373.1 205.6,389.6 186.4,388.5 L100.7,346.5 Z" style="stroke:none;fill-rule:nonzero;fill:#ead434;fill-opacity:1;"/>
        </g>
        <g id="Shape9">
            <desc shapeID="9" type="0" basicInfo-basicType="0" basicInfo-roundedRectRadius="12" basicInfo-polygonSides="6" basicInfo-starPoints="5" bounding="rect(-16.9309,-26.1004,33.8617,52.2009)" text="" font-familyName="" font-pixelSize="20" font-bold="0" font-underline="0" font-alignment="1" strokeStyle="0" markerStart="0" markerEnd="0" shadowEnabled="0" shadowOffsetX="0" shadowOffsetY="2" shadowBlur="4" shadowOpacity="160" blurEnabled="0" blurRadius="4" transform="matrix(1,0,0,1,177.969,360.9)" pers-center="0,0" pers-size="0,0" pers-start="0,0" pers-end="0,0" locked="0" mesh="" flag=""/>
            <path id="shapePath9" d="M175.8,383.3 L164.2,361.2 C158.3,349.5 159.9,335.4 175.5,334.8 C178.2,334.7 189.1,343.5 189.1,343.5 L194.9,368.1 L183.1,387 L175.8,383.3 Z" style="stroke:none;fill-rule:nonzero;fill:#e0ce20;fill-opacity:1;"/>
        </g>
        <g id="Shape10">
            <desc shapeID="10" type="0" basicInfo-basicType="0" basicInfo-roundedRectRadius="12" basicInfo-polygonSides="6" basicInfo-starPoints="5" bounding="rect(-9.96504,-22.5263,19.9301,45.0527)" text="" font-familyName="" font-pixelSize="20" font-bold="0" font-underline="0" font-alignment="1" strokeStyle="0" markerStart="0" markerEnd="0" shadowEnabled="0" shadowOffsetX="0" shadowOffsetY="2" shadowBlur="4" shadowOpacity="160" blurEnabled="0" blurRadius="4" transform="matrix(1,0,0,1,193.065,366.026)" pers-center="0,0" pers-size="0,0" pers-start="0,0" pers-end="0,0" locked="0" mesh="" flag=""/>
            <path id="shapePath10" d="M183.1,387 L189.1,343.5 L202.9,373.1 C202.9,373.1 205.6,389.6 186.4,388.5 L183.1,387 Z" style="stroke:none;fill-rule:nonzero;fill:#efe020;fill-opacity:1;"/>
        </g>
        <g id="Shape11">
            <desc shapeID="11" type="0" basicInfo-basicType="0" basicInfo-roundedRectRadius="12" basicInfo-polygonSides="6" basicInfo-starPoints="5" bounding="rect(-16.9652,-23.7009,33.9304,47.4018)" text="" font-familyName="" font-pixelSize="20" font-bold="0" font-underline="0" font-alignment="1" strokeStyle="0" markerStart="0" markerEnd="0" shadowEnabled="0" shadowOffsetX="0" shadowOffsetY="2" shadowBlur="4" shadowOpacity="160" blurEnabled="0" blurRadius="4" transform="matrix(1,0,0,1,185.135,363.299)" pers-center="0,0" pers-size="0,0" pers-start="0,0" pers-end="0,0" locked="0" mesh="" flag=""/>
            <path id="shapePath11" d="M183.1,387 C183.1,387 182,385 171.5,364.5 C165.6,352.8 166.6,340.2 182.2,339.6 C184.9,339.5 189.1,343.5 189.1,343.5 L202.1,371.4 L183.1,387 Z" style="stroke:none;fill-rule:nonzero;fill:#efe020;fill-opacity:1;"/>
        </g>
    </g>
</svg>
