<?xml version="1.0"?>
<svg version="1.1" xmlns="http://www.w3.org/2000/svg" xmlns:xlink="http://www.w3.org/1999/xlink" width="512" height="512">
    <desc iVinci="yes" version="4.6" gridStep="20" showGrid="no" snapToGrid="no" codePlatform="0"/>
    <g id="Layer1" name="Layer 1" opacity="1">
        <g id="Shape1">
            <desc shapeID="1" type="0" basicInfo-basicType="0" basicInfo-roundedRectRadius="12" basicInfo-polygonSides="6" basicInfo-starPoints="5" bounding="rect(-116.194,-50.4951,232.388,100.99)" text="" font-familyName="" font-pixelSize="20" font-bold="0" font-underline="0" font-alignment="1" strokeStyle="0" markerStart="0" markerEnd="0" shadowEnabled="0" shadowOffsetX="0" shadowOffsetY="2" shadowBlur="4" shadowOpacity="160" blurEnabled="0" blurRadius="4" transform="matrix(1.71285,0,0,1.71285,258.948,411.805)" pers-center="0,0" pers-size="0,0" pers-start="0,0" pers-end="0,0" locked="0" mesh="" flag=""/>
            <path id="shapePath1" d="M442.269,382.902 C437.259,359.803 419.257,341.735 396.177,336.641 L294.257,325.314 L223.569,325.314 L121.65,336.641 C98.569,341.735 80.567,359.803 75.5569,382.902 L59.9254,454.972 C82.4323,469.723 109.1,481.973 138.744,491 C175.128,502.08 216.865,497.17 260.069,497.17 C303.047,497.17 342.857,502.145 379.1,491.173 C408.749,482.196 435.428,469.995 457.971,455.297 L442.269,382.902 Z" style="stroke:none;fill-rule:nonzero;fill:#6aac4b;fill-opacity:1;"/>
        </g>
        <g id="Shape2">
            <desc shapeID="2" type="0" basicInfo-basicType="0" basicInfo-roundedRectRadius="12" basicInfo-polygonSides="6" basicInfo-starPoints="5" bounding="rect(-20.6381,-10.386,41.2762,20.772)" text="" font-familyName="" font-pixelSize="20" font-bold="0" font-underline="0" font-alignment="1" strokeStyle="0" markerStart="0" markerEnd="0" shadowEnabled="0" shadowOffsetX="0" shadowOffsetY="2" shadowBlur="4" shadowOpacity="160" blurEnabled="0" blurRadius="4" transform="matrix(1.71285,0,0,1.71285,258.918,331.936)" pers-center="0,0" pers-size="0,0" pers-start="0,0" pers-end="0,0" locked="0" mesh="" flag=""/>
            <path id="shapePath2" d="M223.569,314.147 L294.257,314.147 C294.257,314.147 295.864,349.726 260.546,349.726 C225.229,349.726 223.516,321.354 223.569,314.147 Z" style="stroke:none;fill-rule:nonzero;fill:#34631c;fill-opacity:1;"/>
        </g>
        <g id="Shape3">
            <desc shapeID="3" type="0" basicInfo-basicType="0" basicInfo-roundedRectRadius="12" basicInfo-polygonSides="6" basicInfo-starPoints="5" bounding="rect(-17,-25.5,34,51)" text="" font-familyName="" font-pixelSize="20" font-bold="0" font-underline="0" font-alignment="1" strokeStyle="0" markerStart="0" markerEnd="0" shadowEnabled="0" shadowOffsetX="0" shadowOffsetY="2" shadowBlur="4" shadowOpacity="160" blurEnabled="0" blurRadius="4" transform="matrix(1.71285,0,0,1.71285,259.236,319.035)" pers-center="0,0" pers-size="0,0" pers-start="0,0" pers-end="0,0" locked="0" mesh="" flag=""/>
            <path id="shapePath3" d="M230.118,275.357 L288.354,275.357 L288.354,362.713 L230.118,362.713 L230.118,275.357 Z" style="stroke:none;fill-rule:evenodd;fill:#ddc29b;fill-opacity:1;"/>
        </g>
        <g id="Shape4">
            <desc shapeID="4" type="0" basicInfo-basicType="0" basicInfo-roundedRectRadius="12" basicInfo-polygonSides="6" basicInfo-starPoints="5" bounding="rect(-85.1625,-74.925,170.325,149.85)" text="" font-familyName="" font-pixelSize="20" font-bold="0" font-underline="0" font-alignment="1" strokeStyle="0" markerStart="0" markerEnd="0" shadowEnabled="0" shadowOffsetX="0" shadowOffsetY="2" shadowBlur="4" shadowOpacity="160" blurEnabled="0" blurRadius="4" transform="matrix(1.71285,0,0,1.71285,259.237,173.362)" pers-center="0,0" pers-size="0,0" pers-start="0,0" pers-end="0,0" locked="0" mesh="" flag=""/>
            <path id="shapePath4" d="M405.107,180.671 C405.107,168.513 397.607,158.123 386.989,153.829 C387.369,149.596 387.573,145.405 387.573,141.279 C387.573,70.4011 330.116,45.027 259.238,45.027 C188.36,45.027 130.901,70.4011 130.901,141.279 C130.901,145.405 131.103,149.596 131.485,153.829 C120.867,158.123 113.366,168.513 113.366,180.671 C113.366,196.393 134.53,217.814 150.443,218.537 C173.136,264.203 213.373,301.698 259.236,301.698 C305.099,301.698 345.336,264.203 368.029,218.537 C383.942,217.814 405.107,196.393 405.107,180.671 Z" style="stroke:none;fill-rule:nonzero;fill:#e8d8bf;fill-opacity:1;"/>
        </g>
        <g id="Shape5">
            <desc shapeID="5" type="0" basicInfo-basicType="0" basicInfo-roundedRectRadius="12" basicInfo-polygonSides="6" basicInfo-starPoints="5" bounding="rect(-30.637,-15.362,61.274,30.724)" text="" font-familyName="" font-pixelSize="20" font-bold="0" font-underline="0" font-alignment="1" strokeStyle="0" markerStart="0" markerEnd="0" shadowEnabled="0" shadowOffsetX="0" shadowOffsetY="2" shadowBlur="4" shadowOpacity="160" blurEnabled="0" blurRadius="4" transform="matrix(1.71285,0,0,1.71285,259.229,340.459)" pers-center="0,0" pers-size="0,0" pers-start="0,0" pers-end="0,0" locked="0" mesh="" flag=""/>
            <path id="shapePath5" d="M259.236,366.772 C287.003,366.772 309.731,345.262 311.706,317.999 L294.255,314.147 C294.255,333.812 278.84,349.753 259.174,349.753 C239.509,349.753 223.568,333.812 223.566,314.147 L206.753,317.857 C208.662,345.187 231.421,366.772 259.236,366.772 Z" style="stroke:none;fill-rule:nonzero;fill:#6aac4b;fill-opacity:1;"/>
        </g>
        <g id="Shape6">
            <desc shapeID="6" type="0" basicInfo-basicType="0" basicInfo-roundedRectRadius="12" basicInfo-polygonSides="6" basicInfo-starPoints="5" bounding="rect(-79.475,-55.594,158.95,111.188)" text="" font-familyName="" font-pixelSize="20" font-bold="0" font-underline="0" font-alignment="1" strokeStyle="0" markerStart="0" markerEnd="0" shadowEnabled="0" shadowOffsetX="0" shadowOffsetY="2" shadowBlur="4" shadowOpacity="160" blurEnabled="0" blurRadius="4" transform="matrix(1.71285,0,0,1.71285,258.914,413.081)" pers-center="0,0" pers-size="0,0" pers-start="0,0" pers-end="0,0" locked="0" mesh="" flag=""/>
            <path id="shapePath6" d="M311.707,317.997 C309.733,345.26 287.005,366.77 259.238,366.77 C231.423,366.77 208.662,345.187 206.758,317.857 L122.785,336.391 C146.981,384.552 143.87,438.123 138.746,491.002 C175.128,502.08 216,508.305 259.202,508.305 C302.181,508.305 342.856,502.147 379.1,491.175 C373.964,438.239 370.82,384.605 395.043,336.391 L311.707,317.997 Z" style="stroke:none;fill-rule:nonzero;fill:#86c867;fill-opacity:1;"/>
        </g>
        <g id="Shape7">
            <desc shapeID="7" type="0" basicInfo-basicType="0" basicInfo-roundedRectRadius="12" basicInfo-polygonSides="6" basicInfo-starPoints="5" bounding="rect(-85.162,-74.925,170.324,149.85)" text="" font-familyName="" font-pixelSize="20" font-bold="0" font-underline="0" font-alignment="1" strokeStyle="0" markerStart="0" markerEnd="0" shadowEnabled="0" shadowOffsetX="0" shadowOffsetY="2" shadowBlur="4" shadowOpacity="160" blurEnabled="0" blurRadius="4" transform="matrix(1.71285,0,0,1.71285,259.198,173.362)" pers-center="0,0" pers-size="0,0" pers-start="0,0" pers-end="0,0" locked="0" mesh="" flag=""/>
            <path id="shapePath7" d="M386.951,153.829 C387.332,149.596 387.535,145.405 387.535,141.279 C387.535,70.4011 330.078,45.027 259.2,45.027 C188.322,45.027 130.863,70.4011 130.863,141.279 C130.863,145.405 131.065,149.596 131.447,153.829 C120.829,158.123 113.329,168.513 113.329,180.671 C113.329,196.393 134.493,217.814 150.405,218.537 C173.099,264.203 213.335,301.698 259.198,301.698 C305.062,301.698 345.298,264.203 367.992,218.537 C383.904,217.814 405.068,196.393 405.068,180.671 C405.07,168.513 397.569,158.121 386.951,153.829 M259.198,297.467 C205.41,297.467 161.806,210.091 161.806,153.752 C161.806,97.4128 205.41,76.1923 259.198,76.1923 C312.987,76.1923 356.591,97.4128 356.591,153.752 C356.591,210.091 312.987,297.467 259.198,297.467 Z" style="stroke:none;fill-rule:nonzero;fill:#ddcdb6;fill-opacity:1;"/>
        </g>
        <g id="Shape8">
            <desc shapeID="8" type="0" basicInfo-basicType="0" basicInfo-roundedRectRadius="12" basicInfo-polygonSides="6" basicInfo-starPoints="5" bounding="rect(-82.7812,-58.5625,165.562,117.125)" text="" font-familyName="" font-pixelSize="20" font-bold="0" font-underline="0" font-alignment="1" strokeStyle="0" markerStart="0" markerEnd="0" shadowEnabled="0" shadowOffsetX="0" shadowOffsetY="2" shadowBlur="4" shadowOpacity="160" blurEnabled="0" blurRadius="4" transform="matrix(1.71285,0,0,1.71285,262.402,103.323)" pers-center="0,0" pers-size="0,0" pers-start="0,0" pers-end="0,0" locked="0" mesh="" flag=""/>
            <path id="shapePath8" d="M357.884,27.5628 C332.966,11.2821 298.452,24.8582 298.452,24.8582 C263.938,0.318192 234.246,0.515167 214.839,6.06137 C108.865,36.3446 121.035,161.047 121.035,161.047 C124.039,160.504 127.05,159.932 130.063,159.339 C133.542,167.629 140.205,182.978 149.211,201.314 C149.211,201.314 141.985,176.182 145.777,156.049 C227.19,138.019 305.646,105.902 305.646,105.902 C316.569,151.364 349.327,174.589 367.884,184.403 C365.315,195.328 361.908,203.632 361.908,203.632 C367.182,198.781 371.477,193.341 374.975,187.87 C378.776,189.566 381.088,190.333 381.088,190.333 C430.836,96.3474 389.431,48.1735 357.884,27.5628 Z" style="stroke:none;fill-rule:nonzero;fill:#5e4534;fill-opacity:1;"/>
        </g>
        <g id="Shape9">
            <desc shapeID="9" type="0" basicInfo-basicType="0" basicInfo-roundedRectRadius="12" basicInfo-polygonSides="6" basicInfo-starPoints="5" bounding="rect(-1.3165,-5.55051,2.633,11.101)" text="" font-familyName="" font-pixelSize="20" font-bold="0" font-underline="0" font-alignment="1" strokeStyle="0" markerStart="0" markerEnd="0" shadowEnabled="0" shadowOffsetX="0" shadowOffsetY="2" shadowBlur="4" shadowOpacity="160" blurEnabled="0" blurRadius="4" transform="matrix(1.71285,0,0,1.71285,146.956,191.807)" pers-center="0,0" pers-size="0,0" pers-start="0,0" pers-end="0,0" locked="0" mesh="" flag=""/>
            <path id="shapePath9" d="M144.701,191.978 C146.131,194.985 147.634,198.101 149.211,201.314 C149.211,201.314 146.851,193.096 145.537,182.3 C145.027,185.46 144.77,188.721 144.701,191.978 Z" style="stroke:none;fill-rule:nonzero;fill:#442f20;fill-opacity:1;"/>
        </g>
        <g id="Shape10">
            <desc shapeID="10" type="0" basicInfo-basicType="0" basicInfo-roundedRectRadius="12" basicInfo-polygonSides="6" basicInfo-starPoints="5" bounding="rect(-82.7781,-46.1315,165.556,92.2629)" text="" font-familyName="" font-pixelSize="20" font-bold="0" font-underline="0" font-alignment="1" strokeStyle="0" markerStart="0" markerEnd="0" shadowEnabled="0" shadowOffsetX="0" shadowOffsetY="2" shadowBlur="4" shadowOpacity="160" blurEnabled="0" blurRadius="4" transform="matrix(1.71285,0,0,1.71285,262.397,82.0289)" pers-center="0,0" pers-size="0,0" pers-start="0,0" pers-end="0,0" locked="0" mesh="" flag=""/>
            <path id="shapePath10" d="M121.055,161.042 C123.568,123.054 138.751,52.6406 214.839,30.896 C234.246,25.3498 263.938,25.1528 298.452,49.6928 C298.452,49.6928 332.966,36.1167 357.884,52.3974 C376.82,64.7693 399.299,87.0775 403.494,123.256 C408.96,72.1123 380.823,42.5468 357.884,27.5611 C332.966,11.2804 298.452,24.8565 298.452,24.8565 C263.938,0.316467 234.246,0.513451 214.839,6.05965 C108.865,36.3428 121.035,161.045 121.035,161.045 C121.042,161.045 121.048,161.043 121.055,161.042 Z" style="stroke:none;fill-rule:nonzero;fill:#442f20;fill-opacity:1;"/>
        </g>
        <g id="Shape11">
            <desc shapeID="11" type="0" basicInfo-basicType="0" basicInfo-roundedRectRadius="12" basicInfo-polygonSides="6" basicInfo-starPoints="5" bounding="rect(-13.667,-13.667,27.334,27.334)" text="" font-familyName="" font-pixelSize="20" font-bold="0" font-underline="0" font-alignment="1" strokeStyle="0" markerStart="0" markerEnd="0" shadowEnabled="0" shadowOffsetX="0" shadowOffsetY="2" shadowBlur="4" shadowOpacity="160" blurEnabled="0" blurRadius="4" transform="matrix(1.71285,0,0,1.71285,325.429,430.941)" pers-center="0,0" pers-size="0,0" pers-start="0,0" pers-end="0,0" locked="0" mesh="" flag=""/>
            <path id="shapePath11" d="M348.839,430.941 C348.839,443.869 338.358,454.35 325.429,454.35 C312.5,454.35 302.02,443.869 302.02,430.941 C302.02,418.012 312.5,407.531 325.429,407.531 C338.358,407.531 348.839,418.012 348.839,430.941 Z" style="stroke:none;fill-rule:evenodd;fill:#356272;fill-opacity:1;"/>
        </g>
        <g id="Shape12">
            <desc shapeID="12" type="0" basicInfo-basicType="0" basicInfo-roundedRectRadius="12" basicInfo-polygonSides="6" basicInfo-starPoints="5" bounding="rect(-6.91699,-6.91701,13.834,13.834)" text="" font-familyName="" font-pixelSize="20" font-bold="0" font-underline="0" font-alignment="1" strokeStyle="0" markerStart="0" markerEnd="0" shadowEnabled="0" shadowOffsetX="0" shadowOffsetY="2" shadowBlur="4" shadowOpacity="160" blurEnabled="0" blurRadius="4" transform="matrix(1.71285,0,0,1.71285,325.429,430.941)" pers-center="0,0" pers-size="0,0" pers-start="0,0" pers-end="0,0" locked="0" mesh="" flag=""/>
            <path id="shapePath12" d="M337.277,430.941 C337.277,437.484 331.973,442.788 325.429,442.788 C318.886,442.788 313.581,437.484 313.581,430.941 C313.581,424.397 318.886,419.093 325.429,419.093 C331.973,419.093 337.277,424.397 337.277,430.941 Z" style="stroke:none;fill-rule:evenodd;fill:#f3f3e9;fill-opacity:1;"/>
        </g>
    </g>
</svg>
